<?xml version="1.0" encoding="UTF-8"?>
<svg viewBox="0 0 1200 1000" xmlns="http://www.w3.org/2000/svg">
  <defs>
    <style>
      .state-box { stroke-width: 2; }
      .state-active { fill: #a5d6a7; stroke: #1b5e20; stroke-width: 3; }
      .state-inactive { fill: #e8f5e9; stroke: #388e3c; stroke-width: 2; }
      .decision { fill: #ffeb3b; stroke: #f57f17; stroke-width: 2; }
      .output { fill: #c8e6c9; stroke: #1b5e20; stroke-width: 2; }
      .text-label { font-family: Arial, sans-serif; font-size: 13px; font-weight: bold; text-anchor: middle; }
      .text-small { font-family: Arial, sans-serif; font-size: 11px; text-anchor: middle; }
      .text-white { fill: white; }
      .text-header { font-family: Arial, sans-serif; font-size: 16px; font-weight: bold; fill: #1a1a1a; }
      .arrow { fill: none; stroke: #333; stroke-width: 2.5; marker-end: url(#arrowhead); }
      .arrow-retry { fill: none; stroke: #d32f2f; stroke-width: 2.5; stroke-dasharray: 5,5; marker-end: url(#arrowhead-red); }
    </style>
    <marker id="arrowhead" markerWidth="10" markerHeight="10" refX="9" refY="3" orient="auto">
      <polygon points="0 0, 10 3, 0 6" fill="#333" />
    </marker>
    <marker id="arrowhead-red" markerWidth="10" markerHeight="10" refX="9" refY="3" orient="auto">
      <polygon points="0 0, 10 3, 0 6" fill="#d32f2f" />
    </marker>
  </defs>
  
  <!-- Title -->
  <text x="600" y="40" class="text-header" text-anchor="middle">
    RCA Chat Agent - LangGraph Workflow (Error Log Analysis)
  </text>
  
  <!-- START -->
  <g id="start">
    <circle cx="600" cy="100" r="25" fill="#4caf50" stroke="#1b5e20" stroke-width="2"/>
    <text x="600" y="108" class="text-label text-white">START</text>
  </g>
  
  <!-- INPUT -->
  <path d="M 600 125 L 600 170" class="arrow"/>
  <g id="input">
    <rect x="520" y="170" width="160" height="60" class="state-active"/>
    <text x="600" y="195" class="text-label text-white">Error Log Input</text>
    <text x="600" y="215" class="text-small text-white">User submits error</text>
  </g>
  
  <!-- STEP 1: ANALYZE -->
  <path d="M 600 230 L 600 275" class="arrow"/>
  <g id="step1">
    <rect x="500" y="275" width="200" height="80" class="state-active"/>
    <text x="600" y="305" class="text-label text-white">1. ANALYZE</text>
    <text x="600" y="325" class="text-small text-white">Extract error type</text>
    <text x="600" y="340" class="text-small text-white">Identify patterns</text>
    <text x="600" y="355" class="text-small text-white">Find root signals</text>
  </g>
  
  <!-- LLM CALL 1 -->
  <path d="M 700 315 L 800 315" class="arrow"/>
  <rect x="800" y="285" width="140" height="60" fill="#c8e6c9" stroke="#2e7d32" stroke-width="2"/>
  <text x="870" y="310" class="text-label text-white">Groq LLM</text>
  <text x="870" y="330" class="text-small">Analyze</text>
  
  <path d="M 800 320 L 700 320" class="arrow"/>
  
  <!-- STEP 2: HYPOTHESIS -->
  <path d="M 600 355 L 600 400" class="arrow"/>
  <g id="step2">
    <rect x="500" y="400" width="200" height="80" class="state-active"/>
    <text x="600" y="430" class="text-label text-white">2. HYPOTHESIS</text>
    <text x="600" y="450" class="text-small text-white">Generate theory</text>
    <text x="600" y="465" class="text-small text-white">Root cause guess</text>
    <text x="600" y="480" class="text-small text-white">Based on analysis</text>
  </g>
  
  <!-- LLM CALL 2 -->
  <path d="M 700 440 L 800 440" class="arrow"/>
  <rect x="800" y="410" width="140" height="60" fill="#c8e6c9" stroke="#2e7d32" stroke-width="2"/>
  <text x="870" y="435" class="text-label text-white">Groq LLM</text>
  <text x="870" y="455" class="text-small">Hypothesis</text>
  
  <path d="M 800 445 L 700 445" class="arrow"/>
  
  <!-- STEP 3: TOOL SELECTION -->
  <path d="M 600 480 L 600 525" class="arrow"/>
  <g id="step3">
    <rect x="500" y="525" width="200" height="80" class="state-active"/>
    <text x="600" y="555" class="text-label text-white">3. TOOL SELECT</text>
    <text x="600" y="575" class="text-small text-white">Decide which tool:</text>
    <text x="600" y="590" class="text-small text-white">Kafka | API | File | Process</text>
    <text x="600" y="605" class="text-small text-white">Based on hypothesis</text>
  </g>
  
  <!-- LLM CALL 3 -->
  <path d="M 700 565 L 800 565" class="arrow"/>
  <rect x="800" y="535" width="140" height="60" fill="#c8e6c9" stroke="#2e7d32" stroke-width="2"/>
  <text x="870" y="560" class="text-label text-white">Groq LLM</text>
  <text x="870" y="580" class="text-small">Choose Tool</text>
  
  <path d="M 800 570 L 700 570" class="arrow"/>
  
  <!-- STEP 4: VALIDATE -->
  <path d="M 600 605 L 600 650" class="arrow"/>
  <g id="step4">
    <rect x="500" y="650" width="200" height="80" class="state-active"/>
    <text x="600" y="680" class="text-label text-white">4. VALIDATE</text>
    <text x="600" y="700" class="text-small text-white">Execute selected tool</text>
    <text x="600" y="715" class="text-small text-white">Check network ports</text>
    <text x="600" y="730" class="text-small text-white">Verify hypothesis</text>
  </g>
  
  <!-- TOOL EXECUTION -->
  <path d="M 700 690 L 800 690" class="arrow"/>
  <rect x="800" y="660" width="140" height="60" fill="#ffe0b2" stroke="#f57f17" stroke-width="2"/>
  <text x="870" y="685" class="text-label">Diagnostic Tool</text>
  <text x="870" y="705" class="text-small">Execute &amp; Verify</text>
  
  <path d="M 800 695 L 700 695" class="arrow"/>
  
  <!-- DECISION DIAMOND -->
  <path d="M 600 730 L 600 775" class="arrow"/>
  <g id="decision">
    <polygon points="600,775 680,825 600,875 520,825" class="decision"/>
    <text x="600" y="825" class="text-label">Valid?</text>
    <text x="600" y="840" class="text-small">Attempts &lt; 3?</text>
  </g>
  
  <!-- DECISION PATH: RETRY (Invalid) -->
  <path d="M 520 825 L 400 825 L 400 440 L 500 440" class="arrow-retry"/>
  <text x="410" y="810" style="font-size: 11px; fill: #d32f2f;">❌ Invalid</text>
  <text x="410" y="825" style="font-size: 11px; fill: #d32f2f;">Retry Hypothesis</text>
  <text x="410" y="840" style="font-size: 11px; fill: #d32f2f;">Attempts++</text>
  
  <!-- DECISION PATH: CONTINUE (Valid or Max Retries) -->
  <path d="M 680 825 L 800 825" class="arrow"/>
  <text x="735" y="815" style="font-size: 11px; fill: #1b5e20;">✓ Valid or</text>
  <text x="735" y="830" style="font-size: 11px; fill: #1b5e20;">Max Retries</text>
  
  <!-- STEP 5: GENERATE FIX -->
  <g id="step5">
    <rect x="800" y="795" width="200" height="80" class="state-active"/>
    <text x="900" y="825" class="text-label text-white">5. GENERATE FIX</text>
    <text x="900" y="845" class="text-small text-white">Create solution steps</text>
    <text x="900" y="860" class="text-small text-white">Prevention tips</text>
    <text x="900" y="875" class="text-small text-white">Best practices</text>
  </g>
  
  <!-- LLM CALL 5 -->
  <path d="M 900 875 L 900 920" class="arrow"/>
  <rect x="830" y="920" width="140" height="50" fill="#c8e6c9" stroke="#2e7d32" stroke-width="2"/>
  <text x="900" y="945" class="text-label text-white">Groq LLM</text>
  
  <!-- FINAL OUTPUT -->
  <path d="M 900 970 L 900 1010" class="arrow"/>
  <g id="output">
    <rect x="750" y="1010" width="300" height="80" class="output"/>
    <text x="900" y="1035" class="text-label text-white">FINAL OUTPUT</text>
    <text x="900" y="1055" class="text-small">✓ Root Cause Analysis</text>
    <text x="900" y="1070" class="text-small">✓ Solution Steps</text>
    <text x="900" y="1085" class="text-small">✓ Prevention Strategies</text>
  </g>
  
  <!-- STATE INFORMATION BOX -->
  <g id="state-info">
    <rect x="50" y="275" width="380" height="320" fill="#f5f5f5" stroke="#999" stroke-width="2" rx="5"/>
    <text x="70" y="300" style="font-size: 13px; font-weight: bold; fill: #333;">RCAState Object:</text>
    
    <g id="state-vars">
      <text x="70" y="330" style="font-size: 11px; font-family: monospace; fill: #666;">error: str</text>
      <text x="70" y="350" style="font-size: 11px; font-family: monospace; fill: #666;">  Input error message</text>
      
      <text x="70" y="375" style="font-size: 11px; font-family: monospace; fill: #666;">analysis: str</text>
      <text x="70" y="395" style="font-size: 11px; font-family: monospace; fill: #666;">  Output from step 1</text>
      
      <text x="70" y="420" style="font-size: 11px; font-family: monospace; fill: #666;">hypothesis: str</text>
      <text x="70" y="440" style="font-size: 11px; font-family: monospace; fill: #666;">  Output from step 2</text>
      
      <text x="70" y="465" style="font-size: 11px; font-family: monospace; fill: #666;">selected_tool: str</text>
      <text x="70" y="485" style="font-size: 11px; font-family: monospace; fill: #666;">  Output from step 3</text>
      
      <text x="70" y="510" style="font-size: 11px; font-family: monospace; fill: #666;">is_valid: bool</text>
      <text x="70" y="530" style="font-size: 11px; font-family: monospace; fill: #666;">  Validation result</text>
      
      <text x="70" y="555" style="font-size: 11px; font-family: monospace; fill: #666;">fix: str</text>
      <text x="70" y="575" style="font-size: 11px; font-family: monospace; fill: #666;">  Final solution output</text>
    </g>
  </g>
  
  <!-- CONTROL FLOW BOX -->
  <g id="control-flow">
    <rect x="50" y="630" width="380" height="230" fill="#f5f5f5" stroke="#999" stroke-width="2" rx="5"/>
    <text x="70" y="655" style="font-size: 13px; font-weight: bold; fill: #333;">Control Flow Logic:</text>
    
    <g id="flow-items">
      <text x="70" y="685" style="font-size: 11px; fill: #333;">1. All steps connected sequentially</text>
      
      <text x="70" y="710" style="font-size: 11px; fill: #333;">2. After validation, check result:</text>
      <text x="90" y="728" style="font-size: 10px; fill: #666;">if is_valid: goto Step 5 (Fix)</text>
      <text x="90" y="743" style="font-size: 10px; fill: #666;">if not valid &amp;&amp; attempts &lt; 3:</text>
      <text x="110" y="758" style="font-size: 10px; fill: #666;">→ retry to Step 2 (new hypothesis)</text>
      <text x="90" y="773" style="font-size: 10px; fill: #666;">else: goto Step 5 (max retries)</text>
      
      <text x="70" y="800" style="font-size: 11px; fill: #333;">3. Step 5 generates final fix</text>
      
      <text x="70" y="825" style="font-size: 11px; fill: #333;">4. Return complete state to backend</text>
      
      <text x="70" y="850" style="font-size: 11px; fill: #333;">Max iterations: 3 attempts</text>
    </g>
  </g>
  
  <!-- RESPONSE FORMAT BOX -->
  <g id="response-format">
    <rect x="820" y="275" width="350" height="320" fill="#f5f5f5" stroke="#999" stroke-width="2" rx="5"/>
    <text x="840" y="300" style="font-size: 13px; font-weight: bold; fill: #333;">Response Format:</text>
    
    <g id="format-items">
      <text x="840" y="330" style="font-size: 11px; font-family: monospace; fill: #333;">### 🔍 Analysis</text>
      <text x="840" y="348" style="font-size: 10px; font-family: monospace; fill: #666;">{{ state['analysis'] }}</text>
      
      <text x="840" y="375" style="font-size: 11px; font-family: monospace; fill: #333;">### 💡 Hypothesis</text>
      <text x="840" y="393" style="font-size: 10px; font-family: monospace; fill: #666;">{{ state['hypothesis'] }}</text>
      
      <text x="840" y="420" style="font-size: 11px; font-family: monospace; fill: #333;">### 🛠️ Diagnostics</text>
      <text x="840" y="438" style="font-size: 10px; font-family: monospace; fill: #666;">Used tool: {{ selected_tool }}</text>
      
      <text x="840" y="465" style="font-size: 11px; font-family: monospace; fill: #333;">### ✅ Recommended Fix</text>
      <text x="840" y="483" style="font-size: 10px; font-family: monospace; fill: #666;">{{ state['fix'] }}</text>
      
      <text x="840" y="510" style="font-size: 10px; fill: #999;">All sections shown in markdown</text>
      <text x="840" y="527" style="font-size: 10px; fill: #999;">with emoji icons for clarity</text>
    </g>
  </g>
</svg>
